<?xml version="1.0" encoding="UTF-8"?>
<svg version="1.1" xmlns="http://www.w3.org/2000/svg" width="176" height="176">
<path d="M0 0 C58.08 0 116.16 0 176 0 C176 58.08 176 116.16 176 176 C117.92 176 59.84 176 0 176 C0 117.92 0 59.84 0 0 Z " fill="#FDFDFD" transform="translate(0,0)"/>
<path d="M0 0 C3.37462715 0.54723683 5.08235 1.0549 8 3 C9.63156399 3.5447626 11.27968284 4.0412957 12.9375 4.5 C15.45763285 5.19940339 17.70815015 5.84476072 20.01953125 7.07421875 C22.37315129 8.17443167 24.16296555 8.23422985 26.75 8.3125 C31.96429077 8.74509301 36.19313511 10.31241025 40 14 C40.8515625 16.01171875 40.8515625 16.01171875 41 18 C38.8125 20.5 38.8125 20.5 36 23 C33.63192631 25.30041444 31.84235203 27.23647196 30 30 C26.375 30.6875 26.375 30.6875 23 31 C24.00314392 28.2992279 24.99197353 26.01173099 26.625 23.625 C28.37837539 20.27764698 28.21906316 17.72407371 28 14 C23.83487842 12.40968085 19.70673526 10.90870476 15.4375 9.625 C11.58173771 8.36855332 8.70352019 6.60800862 5.5078125 4.140625 C3.77691534 2.83124166 1.9845705 1.87321102 0 1 C0 0.67 0 0.34 0 0 Z " fill="#0A0A0A" transform="translate(77,70)"/>
<path d="M0 0 C8.31546142 0.08605911 15.65992119 2.05610133 21.7265625 7.96484375 C22.66028932 9.01004076 23.58470741 10.06362257 24.5 11.125 C27.54298274 14.56948741 30.58046736 17.97803745 33.875 21.1875 C33.545 21.8475 33.215 22.5075 32.875 23.1875 C30.75487825 22.02309647 28.65717171 20.8337213 26.5625 19.625 C25.96759766 19.30208984 25.37269531 18.97917969 24.75976562 18.64648438 C19.93103532 15.81398894 18.58822178 13.29005584 16.875 8.1875 C16.24932129 8.19797363 15.62364258 8.20844727 14.97900391 8.21923828 C12.1527099 8.26073191 9.32647989 8.28680473 6.5 8.3125 C5.51515625 8.32925781 4.5303125 8.34601563 3.515625 8.36328125 C2.57460937 8.36972656 1.63359375 8.37617187 0.6640625 8.3828125 C-0.63990479 8.39852295 -0.63990479 8.39852295 -1.97021484 8.41455078 C-4.125 8.1875 -4.125 8.1875 -6.125 6.1875 C-6.3125 3.625 -6.3125 3.625 -6.125 1.1875 C-4.43044966 -0.50705034 -2.3141874 0.01576422 0 0 Z " fill="#0B0B0B" transform="translate(105.125,102.8125)"/>
<path d="M0 0 C6.79926403 3.56963945 13.06019054 7.67579102 19.3125 12.125 C20.19228516 12.74503906 21.07207031 13.36507812 21.97851562 14.00390625 C25.68859791 16.62378212 29.37626137 19.26151611 33 22 C32.67 22.66 32.34 23.32 32 24 C28.34734049 22.79723493 24.69802065 21.58620289 21.0546875 20.35546875 C18.60904665 19.53010804 16.16428241 18.74414792 13.6953125 17.98828125 C9.19503316 16.54306959 6.59642774 15.68370984 3.4375 12.0625 C2.7259375 10.5465625 2.7259375 10.5465625 2 9 C1.5875 8.13375 1.175 7.2675 0.75 6.375 C0 4 0 4 0 0 Z " fill="#0A0A0A" transform="translate(28,40)"/>
<path d="M0 0 C2.0625 1.5 2.0625 1.5 4 4 C3.91097494 9.51955394 2.73072663 13.16871442 0 18 C-0.43054688 18.9590625 -0.86109375 19.918125 -1.3046875 20.90625 C-3.11209027 24.20455183 -4.87973255 25.97716788 -7.75 28.375 C-14.83507301 34.51884433 -22.61171615 41.28201308 -24 51 C-24.66 50.67 -25.32 50.34 -26 50 C-25.99397863 48.3953036 -25.94380823 46.79073181 -25.875 45.1875 C-25.85179688 44.29417969 -25.82859375 43.40085938 -25.8046875 42.48046875 C-25 40 -25 40 -22.20703125 38.55078125 C-21.14871094 38.03902344 -20.09039062 37.52726562 -19 37 C-16.69520054 34.20890297 -16.69520054 34.20890297 -14.8125 31 C-9.53941267 22.51313756 -9.53941267 22.51313756 -5 21 C-4.80664062 19.98679687 -4.61328125 18.97359375 -4.4140625 17.9296875 C-4.15125077 16.57808432 -3.88821817 15.22652408 -3.625 13.875 C-3.43550781 12.87726563 -3.43550781 12.87726563 -3.2421875 11.859375 C-2.4425726 7.781339 -1.40130515 3.91146915 0 0 Z " fill="#0A0A0A" transform="translate(95,108)"/>
<path d="M0 0 C6.5020799 2.21268498 12.6009472 4.73052371 18.6953125 7.89453125 C21.74439636 9.35705791 24.71709502 10.21495751 28 11 C28 11.33 28 11.66 28 12 C24.34511156 12.75247703 20.68287602 13.40000828 17 14 C16.26394531 14.14824219 15.52789062 14.29648438 14.76953125 14.44921875 C12.8125 14.6875 12.8125 14.6875 9 14 C4.25811044 10.10369214 0.78336384 6.21174426 0 0 Z " fill="#060606" transform="translate(35,59)"/>
<path d="M0 0 C3.04489912 3.79376062 6.0703644 7.60200384 9.0625 11.4375 C9.49626953 11.98470703 9.93003906 12.53191406 10.37695312 13.09570312 C13.06960593 16.55885627 15.15559284 19.99068214 17 24 C13.88445719 22.49992383 10.9400023 20.82000142 8 19 C6.948125 18.360625 5.89625 17.72125 4.8125 17.0625 C1.95470057 14.96678042 1.19616116 14.20661044 0 11 C-0.1953125 8.203125 -0.1953125 8.203125 -0.125 5.25 C-0.09792969 3.77273437 -0.09792969 3.77273437 -0.0703125 2.265625 C-0.04710937 1.51796875 -0.02390625 0.7703125 0 0 Z " fill="#080808" transform="translate(61,23)"/>
<path d="M0 0 C3.21616257 1.65402646 5.10341889 3.12463302 7.4375 5.9375 C10.05708234 9.06822035 12.57055956 10.83796146 16 13 C17.875 14.625 17.875 14.625 19 16 C19 16.66 19 17.32 19 18 C16.8125 17.875 16.8125 17.875 14 17 C12.31267723 15.01739574 10.64633943 13.0167658 9 11 C6.38732142 9.53435104 4.96523108 8.84918264 2 9.3125 C1.01 9.6528125 1.01 9.6528125 0 10 C-1.66519519 10.34060811 -3.33157466 10.67558396 -5 11 C-5.99 9.68 -6.98 8.36 -8 7 C-4.7 6.67 -1.4 6.34 2 6 C1.34 4.02 0.68 2.04 0 0 Z " fill="#121212" transform="translate(89,59)"/>
<path d="M0 0 C0 0.66 0 1.32 0 2 C-3.59674588 5.16700481 -6.80951591 6.97947441 -11.625 7.0625 C-15.317067 5.90018261 -17.95547905 4.37621147 -21 2 C-21 1.67 -21 1.34 -21 1 C-18.06255476 0.83231709 -15.12505096 0.66581142 -12.1875 0.5 C-11.35412109 0.45230469 -10.52074219 0.40460938 -9.66210938 0.35546875 C-8.85966797 0.31035156 -8.05722656 0.26523438 -7.23046875 0.21875 C-6.49207764 0.17685547 -5.75368652 0.13496094 -4.99291992 0.09179688 C-3.33009506 0.01520467 -1.6645879 0 0 0 Z " fill="#080808" transform="translate(69,76)"/>
<path d="M0 0 C2.5625 0.1875 2.5625 0.1875 4.5625 2.1875 C4.83241906 4.87589385 4.64987357 7.47891936 4.5625 10.1875 C0.1075 10.6825 0.1075 10.6825 -4.4375 11.1875 C-4.29707123 9.54119672 -4.15000671 7.89545821 -4 6.25 C-3.91878906 5.33347656 -3.83757812 4.41695313 -3.75390625 3.47265625 C-3.31830673 0.32665972 -3.18814141 0.24524165 0 0 Z " fill="#030303" transform="translate(119.4375,67.8125)"/>
<path d="M0 0 C2.00390625 1.7578125 2.00390625 1.7578125 4 4 C3.91321319 9.38078209 2.92455937 13.38819484 0 18 C-0.99 18.33 -1.98 18.66 -3 19 C-3.38614349 12.1781317 -2.00865708 6.50422293 0 0 Z " fill="#060606" transform="translate(95,108)"/>
<path d="M0 0 C0.4846875 0.37511719 0.969375 0.75023437 1.46875 1.13671875 C6.1555558 4.71491472 10.94671516 7.96265326 16 11 C12.73296469 12.08901177 11.32516714 11.93102067 8 11.3125 C7.13375 11.16425781 6.2675 11.01601563 5.375 10.86328125 C2.44151392 9.79699766 1.52238074 8.69267993 0 6 C-0.1875 2.75 -0.1875 2.75 0 0 Z " fill="#0B0B0B" transform="translate(63,42)"/>
<path d="M0 0 C8.415 1.98 8.415 1.98 17 4 C12.98780537 6.00609732 10.45071501 6.84383456 6 7 C2.57258371 4.91374661 1.27518963 3.8255689 0 0 Z " fill="#131313" transform="translate(67,56)"/>
<path d="M0 0 C0.99 0.33 1.98 0.66 3 1 C2.52949219 1.40089844 2.05898437 1.80179688 1.57421875 2.21484375 C-3.30807662 6.6725917 -5.47321278 10.58749369 -7 17 C-7.66 16.67 -8.32 16.34 -9 16 C-8.98715254 12.57615061 -8.84530052 9.32736128 -8 6 C-5.0625 4.0625 -5.0625 4.0625 -2 3 C-1.34 2.01 -0.68 1.02 0 0 Z " fill="#252525" transform="translate(78,142)"/>
<path d="M0 0 C-2.14661225 3.21991837 -3.30028198 4.78580061 -7.0625 5.9375 C-10 6 -10 6 -13 4 C-11.40233897 3.13372601 -9.79660056 2.28233535 -8.1875 1.4375 C-7.29417969 0.96183594 -6.40085937 0.48617187 -5.48046875 -0.00390625 C-3 -1 -3 -1 0 0 Z " fill="#070707" transform="translate(78,81)"/>
<path d="M0 0 C2.97 0 5.94 0 9 0 C8.67 0.99 8.34 1.98 8 3 C6.35 3.33 4.7 3.66 3 4 C2.01 2.68 1.02 1.36 0 0 Z " fill="#070707" transform="translate(81,66)"/>
<path d="M0 0 C1.12894876 0.93274109 2.25300876 1.87140122 3.375 2.8125 C4.00148437 3.33457031 4.62796875 3.85664063 5.2734375 4.39453125 C7 6 7 6 9 9 C5.625 8.4375 5.625 8.4375 2 7 C0.5625 3.375 0.5625 3.375 0 0 Z " fill="#0D0D0D" transform="translate(139,126)"/>
<path d="M0 0 C0.33 1.32 0.66 2.64 1 4 C0.01 4.66 -0.98 5.32 -2 6 C-2.99 5.67 -3.98 5.34 -5 5 C-3.35 3.35 -1.7 1.7 0 0 Z " fill="#050505" transform="translate(83,82)"/>
</svg>
